<svg fill="none" height="62" viewBox="0 0 326 62" width="326" xmlns="http://www.w3.org/2000/svg"><path d="m43.603 47.3024-.7606 2.9574" opacity=".88" stroke="#000" stroke-width=".12"/><path d="m50.2426 48.9349-3.1855 5.2516" opacity=".88" stroke="#000" stroke-width=".12"/><path d="m48.4123 46.0291-2.2519 2.4096" opacity=".88" stroke="#000" stroke-width=".12"/><path d="m49.5946 46.3236.547 1.9682" opacity=".88" stroke="#000" stroke-width=".12"/><path d="m44.4974 46.4905 3.5104-.9757" opacity=".88" stroke="#000" stroke-width=".12"/><path d="m45.1371 43.207 2.7545 1.1947" opacity=".88" stroke="#000" stroke-width=".12"/><path d="m47.3699 41.0277 1.2535 2.6022" opacity=".88" stroke="#000" stroke-width=".12"/><path d="m53.2703 38.3396-3.0896 5.3742" opacity=".88" stroke="#000" stroke-width=".12"/><path d="m31.5689 29.623-4.7298 1.8368" opacity=".88" stroke="#000" stroke-width=".12"/><path d="m31.3966 24.6028-7.2828-2.0219" opacity=".88" stroke="#000" stroke-width=".12"/><path d="m31.7331 23.8495-2.958-3.2684" opacity=".88" stroke="#000" stroke-width=".12"/><path d="m38.0214 21.5027-2.9228-1.2621" opacity=".88" stroke="#000" stroke-width=".12"/><path d="m38.1014 22.2158-1.2468.8849" opacity=".88" stroke="#000" stroke-width=".12"/><path d="m34.5136 14.8781-2.6857-1.2249" opacity=".88" stroke="#000" stroke-width=".12"/><path d="m34.8861 15.994-5.9864 3.6174" opacity=".88" stroke="#000" stroke-width=".12"/><path d="m40.2461 13.8615-2.9437.9908" opacity=".88" stroke="#000" stroke-width=".12"/><path d="m36.4438 9.78455-.4495 3.98425" opacity=".88" stroke="#000" stroke-width=".12"/><path d="m44.4922 7.63464-3.8103 3.39126" opacity=".88" stroke="#000" stroke-width=".12"/><path d="m41.9669 18.2827-2.87 3.0523" opacity=".88" stroke="#000" stroke-width=".12"/><path d="m42.2641 16.9401-1.2165-2.6825" opacity=".88" stroke="#000" stroke-width=".12"/><path d="m32.5141 30.4579-.8625 2.4815" opacity=".88" stroke="#000" stroke-width=".12"/><path d="m27.1032 28.3297-.9661 2.5861" opacity=".88" stroke="#000" stroke-width=".12"/><path d="m25.0219 31.4736-2.4636-1.3365" opacity=".88" stroke="#000" stroke-width=".12"/><path d="m34.5257 26.8197-.7867 1.2465" opacity=".88" stroke="#000" stroke-width=".12"/><path d="m25.4598 32.775-.8797 1.7148" opacity=".88" stroke="#000" stroke-width=".12"/><path d="m33.7321 34.5785-4.7153 2.7973" opacity=".88" stroke="#000" stroke-width=".12"/><path d="m26.3021 41.781-3.3219-3.5513" opacity=".88" stroke="#000" stroke-width=".12"/><path d="m37.3603 41.3998-3.8288 1.5103" opacity=".88" stroke="#000" stroke-width=".12"/><path d="m33.5653 39.5944-.964 2.6837" opacity=".88" stroke="#000" stroke-width=".12"/><path d="m36.0041 44.4484-2.3496-.5008" opacity=".88" stroke="#000" stroke-width=".12"/><path d="m30.8962 43.395-3.5503-.8771" opacity=".88" stroke="#000" stroke-width=".12"/><path d="m31.1257 44.5128-2.1118 1.197" opacity=".88" stroke="#000" stroke-width=".12"/><path d="m32.8774 44.994 1.3165 6.5305" opacity=".88" stroke="#000" stroke-width=".12"/><path d="m55.2589 37.6326 4.2135 2.6659" opacity=".88" stroke="#000" stroke-width=".12"/><path d="m55.9778 32.7476 1.4458.3237" opacity=".88" stroke="#000" stroke-width=".12"/><path d="m57.5098 29.2468 4.9595-.2586" opacity=".88" stroke="#000" stroke-width=".12"/><path d="m58.2107 24.3954-1.1445 4.2715" opacity=".88" stroke="#000" stroke-width=".12"/><path d="m59.2114 24.1801 3.613 4.0773" opacity=".88" stroke="#000" stroke-width=".12"/><path d="m59.6222 23.3925 4.5363.9321" opacity=".88" stroke="#000" stroke-width=".12"/><path d="m65.3274 24.7726 3.1138 7.2196" opacity=".88" stroke="#000" stroke-width=".12"/><path d="m59.384 22.767 6.1417-2.627" opacity=".88" stroke="#000" stroke-width=".12"/><path d="m58.7111 22.3213.2521-2.3136" opacity=".88" stroke="#000" stroke-width=".12"/><path d="m60.7978 18.9824-.3381-1.2967" opacity=".88" stroke="#000" stroke-width=".12"/><path d="m63.6481 17.2247-2.3295 2.1483" opacity=".88" stroke="#000" stroke-width=".12"/><path d="m52.8196 21.6002 4.8441 1.2557" opacity=".88" stroke="#000" stroke-width=".12"/><path d="m54.9147 25.4277 2.7516-1.5289" opacity=".88" stroke="#000" stroke-width=".12"/><path d="m54.9777 17.3009 3.0487 5.1775" opacity=".88" stroke="#000" stroke-width=".12"/><path d="m53.9577 17.3181-1.6832 2.8607" opacity=".88" stroke="#000" stroke-width=".12"/><path d="m57.683 11.5106-2.6325 3.9894" opacity=".88" stroke="#000" stroke-width=".12"/><path d="m57.4285 11.229-2.5469.36" opacity=".88" stroke="#000" stroke-width=".12"/><path d="m54.2926 11.2608-.5297-2.05047" opacity=".88" stroke="#000" stroke-width=".12"/><path d="m58.6389 33.4818 2.1275.9488" opacity=".88" stroke="#000" stroke-width=".12"/><path d="m57.4921 36.1155 3.3619-.9547" opacity=".88" stroke="#000" stroke-width=".12"/><path d="m60.3926 39.9833 1.4848-3.8616" opacity=".88" stroke="#000" stroke-width=".12"/><path d="m60.8132 40.7117 4.5143 1.1587" opacity=".88" stroke="#000" stroke-width=".12"/><path d="m53.436 42.0878-2.8236 2.1723" opacity=".88" stroke="#000" stroke-width=".12"/><path d="m57.5717 44.3959-6.8049.5607" opacity=".88" stroke="#000" stroke-width=".12"/><path d="m58.5702 49.798-3.0042-1.3367" opacity=".88" stroke="#000" stroke-width=".12"/><g fill="#000"><path d="m58.5556 24.483c.602 0 1.09-.4926 1.09-1.1002s-.488-1.1002-1.09-1.1002-1.09.4926-1.09 1.1002.488 1.1002 1.09 1.1002z" opacity=".88"/><path d="m51.9057 22.2382c.602 0 1.09-.4926 1.09-1.1002s-.488-1.1002-1.09-1.1002-1.09.4926-1.09 1.1002.488 1.1002 1.09 1.1002z" opacity=".88"/><path d="m32.4435 25.6503c.602 0 1.0901-.4925 1.0901-1.1002 0-.6076-.4881-1.1001-1.0901-1.1001s-1.09.4925-1.09 1.1001c0 .6077.488 1.1002 1.09 1.1002z" opacity=".88"/><path d="m25.8666 32.9896c.602 0 1.09-.4926 1.09-1.1002s-.488-1.1002-1.09-1.1002-1.09.4926-1.09 1.1002.488 1.1002 1.09 1.1002z" opacity=".88"/><path d="m63.5385 30.063c.602 0 1.09-.4925 1.09-1.1001 0-.6077-.488-1.1002-1.09-1.1002s-1.09.4925-1.09 1.1002c0 .6076.488 1.1001 1.09 1.1001z" opacity=".88"/><path d="m54.4571 17.4955c.602 0 1.09-.4925 1.09-1.1001 0-.6077-.488-1.1002-1.09-1.1002s-1.09.4925-1.09 1.1002c0 .6076.488 1.1001 1.09 1.1001z" opacity=".88"/><path d="m42.7839 18.7729c.602 0 1.09-.4926 1.09-1.1002s-.488-1.1002-1.09-1.1002-1.0901.4926-1.0901 1.1002.4881 1.1002 1.0901 1.1002z" opacity=".88"/><path d="m28.1148 47.3698c.602 0 1.09-.4926 1.09-1.1002s-.488-1.1002-1.09-1.1002-1.09.4926-1.09 1.1002.488 1.1002 1.09 1.1002z" opacity=".88"/><path d="m33.9272 39.8006c.602 0 1.09-.4926 1.09-1.1002s-.488-1.1002-1.09-1.1002-1.09.4926-1.09 1.1002.488 1.1002 1.09 1.1002z" opacity=".88"/><path d="m30.8942 14.2708c.6254 0 1.1324-.5117 1.1324-1.143s-.507-1.1431-1.1324-1.1431c-.6255 0-1.1325.5118-1.1325 1.1431s.507 1.143 1.1325 1.143z" opacity=".88"/><path d="m44.8765 12.92c.6254 0 1.1324-.5118 1.1324-1.1431 0-.6312-.507-1.143-1.1324-1.143-.6255 0-1.1325.5118-1.1325 1.143 0 .6313.507 1.1431 1.1325 1.1431z" opacity=".88"/><path d="m35.9585 16.6336c.8058 0 1.459-.6593 1.459-1.4726s-.6532-1.4726-1.459-1.4726-1.459.6593-1.459 1.4726.6532 1.4726 1.459 1.4726z" opacity=".88"/><path d="m59.6861 18.0218c.8058 0 1.459-.6593 1.459-1.4726s-.6532-1.4727-1.459-1.4727-1.459.6594-1.459 1.4727.6532 1.4726 1.459 1.4726z" opacity=".88"/><path d="m62.1985 36.1544c.8058 0 1.459-.6594 1.459-1.4727s-.6532-1.4726-1.459-1.4726-1.459.6593-1.459 1.4726.6532 1.4727 1.459 1.4727z" opacity=".88"/><path d="m58.0552 33.8727c.3725 0 .6745-.3048.6745-.6809 0-.376-.302-.6808-.6745-.6808-.3726 0-.6746.3048-.6746.6808 0 .3761.302.6809.6746.6809z" opacity=".88"/><path d="m40.8141 14.2896c.3725 0 .6746-.3049.6746-.6809s-.3021-.6808-.6746-.6808c-.3726 0-.6746.3048-.6746.6808s.302.6809.6746.6809z" opacity=".88"/><path d="m34.5829 20.6929c.3725 0 .6745-.3048.6745-.6809 0-.376-.302-.6808-.6745-.6808-.3726 0-.6746.3048-.6746.6808 0 .3761.302.6809.6746.6809z" opacity=".88"/><path d="m23.541 23.0604c.3726 0 .6746-.3048.6746-.6808s-.302-.6809-.6746-.6809c-.3725 0-.6745.3049-.6745.6809s.302.6808.6745.6808z" opacity=".88"/><path d="m36.5411 9.89089c.3726 0 .6746-.30483.6746-.68086s-.302-.68086-.6746-.68086c-.3725 0-.6745.30483-.6745.68086s.302.68086.6745.68086z" opacity=".88"/><path d="m40.1963 12.1159c.3725 0 .6746-.3049.6746-.6809s-.3021-.6808-.6746-.6808c-.3726 0-.6746.3048-.6746.6808s.302.6809.6746.6809z" opacity=".88"/><path d="m49.2928 46.3634c.8058 0 1.459-.6594 1.459-1.4727s-.6532-1.4726-1.459-1.4726-1.4591.6593-1.4591 1.4726.6533 1.4727 1.4591 1.4727z" opacity=".88"/><path d="m32.9171 30.5555c.8058 0 1.4591-.6593 1.4591-1.4726 0-.8134-.6533-1.4727-1.4591-1.4727-.8057 0-1.459.6593-1.459 1.4727 0 .8133.6533 1.4726 1.459 1.4726z" opacity=".88"/><path d="m31.5637 34.3655c.4094 0 .7413-.335.7413-.7482 0-.4133-.3319-.7483-.7413-.7483s-.7413.335-.7413.7483c0 .4132.3319.7482.7413.7482z" opacity=".88"/><path d="m34.2953 35.087c.4094 0 .7413-.335.7413-.7482s-.3319-.7482-.7413-.7482-.7413.335-.7413.7482.3319.7482.7413.7482z" opacity=".88"/><path d="m28.4081 38.5308c.4094 0 .7413-.335.7413-.7483 0-.4132-.3319-.7482-.7413-.7482-.4095 0-.7414.335-.7414.7482 0 .4133.3319.7483.7414.7483z" opacity=".88"/><path d="m38.5492 22.5531c.4094 0 .7413-.335.7413-.7482 0-.4133-.3319-.7483-.7413-.7483s-.7413.335-.7413.7483c0 .4132.3319.7482.7413.7482z" opacity=".88"/><path d="m22.0443 30.4183c.4094 0 .7413-.335.7413-.7482s-.3319-.7482-.7413-.7482-.7413.335-.7413.7482.3319.7482.7413.7482z" opacity=".88"/><path d="m27.3329 28.3223c.4094 0 .7413-.335.7413-.7483 0-.4132-.3319-.7482-.7413-.7482s-.7413.335-.7413.7482c0 .4133.3319.7483.7413.7483z" opacity=".88"/><path d="m60.1097 41.3534c.4094 0 .7413-.335.7413-.7482 0-.4133-.3319-.7483-.7413-.7483s-.7413.335-.7413.7483c0 .4132.3319.7482.7413.7482z" opacity=".88"/><path d="m54.067 42.3989c.4094 0 .7413-.335.7413-.7482s-.3319-.7482-.7413-.7482-.7413.335-.7413.7482.3319.7482.7413.7482z" opacity=".88"/><path d="m58.0216 44.8109c.2521 0 .4565-.2062.4565-.4607 0-.2544-.2044-.4607-.4565-.4607s-.4564.2063-.4564.4607c0 .2545.2043.4607.4564.4607z" opacity=".88"/><path d="m58.971 50.4586c.2521 0 .4564-.2062.4564-.4607 0-.2544-.2043-.4607-.4564-.4607s-.4565.2063-.4565.4607c0 .2545.2044.4607.4565.4607z" opacity=".88"/><path d="m46.8958 54.9762c.2521 0 .4564-.2063.4564-.4607s-.2043-.4607-.4564-.4607-.4565.2063-.4565.4607.2044.4607.4565.4607z" opacity=".88"/><path d="m34.2088 52.3325c.252 0 .4564-.2062.4564-.4607 0-.2544-.2044-.4607-.4564-.4607-.2521 0-.4565.2063-.4565.4607 0 .2545.2044.4607.4565.4607z" opacity=".88"/><path d="m50.2912 49.1265c.252 0 .4564-.2063.4564-.4607 0-.2545-.2044-.4607-.4564-.4607-.2521 0-.4565.2062-.4565.4607 0 .2544.2044.4607.4565.4607z" opacity=".88"/><path d="m45.8422 49.1861c.2521 0 .4564-.2063.4564-.4607 0-.2545-.2043-.4608-.4564-.4608s-.4565.2063-.4565.4608c0 .2544.2044.4607.4565.4607z" opacity=".88"/><path d="m44.6529 43.4789c.252 0 .4564-.2063.4564-.4607s-.2044-.4607-.4564-.4607c-.2521 0-.4565.2063-.4565.4607s.2044.4607.4565.4607z" opacity=".88"/><path d="m47.2228 41.0468c.2521 0 .4564-.2063.4564-.4607 0-.2545-.2043-.4607-.4564-.4607s-.4564.2062-.4564.4607c0 .2544.2043.4607.4564.4607z" opacity=".88"/><path d="m57.0475 36.6693c.2521 0 .4564-.2062.4564-.4607 0-.2544-.2043-.4607-.4564-.4607s-.4564.2063-.4564.4607c0 .2545.2043.4607.4564.4607z" opacity=".88"/><path d="m65.7711 42.4417c.2521 0 .4565-.2063.4565-.4607 0-.2545-.2044-.4607-.4565-.4607-.252 0-.4564.2062-.4564.4607 0 .2544.2044.4607.4564.4607z" opacity=".88"/><path d="m55.5797 33.0344c.2521 0 .4565-.2062.4565-.4607 0-.2544-.2044-.4607-.4565-.4607s-.4564.2063-.4564.4607c0 .2545.2043.4607.4564.4607z" opacity=".88"/><path d="m54.6908 26.147c.2521 0 .4565-.2063.4565-.4607s-.2044-.4607-.4565-.4607-.4564.2063-.4564.4607.2043.4607.4564.4607z" opacity=".88"/><path d="m65.8397 20.3943c.2521 0 .4565-.2063.4565-.4607s-.2044-.4607-.4565-.4607c-.252 0-.4564.2063-.4564.4607s.2044.4607.4564.4607z" opacity=".88"/><path d="m68.4926 32.9007c.2521 0 .4564-.2063.4564-.4607 0-.2545-.2043-.4608-.4564-.4608s-.4565.2063-.4565.4608c0 .2544.2044.4607.4565.4607z" opacity=".88"/><path d="m58.9878 20.0217c.2521 0 .4565-.2062.4565-.4607 0-.2544-.2044-.4607-.4565-.4607s-.4564.2063-.4564.4607c0 .2545.2043.4607.4564.4607z" opacity=".88"/><path d="m60.8996 19.887c.252 0 .4564-.2063.4564-.4607 0-.2545-.2044-.4607-.4564-.4607-.2521 0-.4565.2062-.4565.4607 0 .2544.2044.4607.4565.4607z" opacity=".88"/><path d="m63.8927 17.3307c.2521 0 .4565-.2063.4565-.4607s-.2044-.4607-.4565-.4607-.4564.2063-.4564.4607.2043.4607.4564.4607z" opacity=".88"/><path d="m36.57 23.8197c.2521 0 .4564-.2062.4564-.4607 0-.2544-.2043-.4607-.4564-.4607s-.4565.2063-.4565.4607c0 .2545.2044.4607.4565.4607z" opacity=".88"/><path d="m34.6872 27.0925c.252 0 .4564-.2062.4564-.4607 0-.2544-.2044-.4607-.4564-.4607-.2521 0-.4565.2063-.4565.4607 0 .2545.2044.4607.4565.4607z" opacity=".88"/><path d="m24.2948 35.333c.2521 0 .4565-.2062.4565-.4607 0-.2544-.2044-.4607-.4565-.4607s-.4564.2063-.4564.4607c0 .2545.2043.4607.4564.4607z" opacity=".88"/><path d="m22.7562 38.3228c.2521 0 .4565-.2063.4565-.4607 0-.2545-.2044-.4607-.4565-.4607-.252 0-.4564.2062-.4564.4607 0 .2544.2044.4607.4564.4607z" opacity=".88"/><path d="m44.8168 7.79896c.2521 0 .4564-.20626.4564-.4607 0-.25443-.2043-.4607-.4564-.4607s-.4564.20627-.4564.4607c0 .25444.2043.4607.4564.4607z" opacity=".88"/><path d="m54.4354 12.1343c.2521 0 .4565-.2063.4565-.4607s-.2044-.4607-.4565-.4607c-.252 0-.4564.2063-.4564.4607s.2044.4607.4564.4607z" opacity=".88"/><path d="m36.3981 45.0143c.2521 0 .4564-.2063.4564-.4607s-.2043-.4607-.4564-.4607-.4564.2063-.4564.4607.2043.4607.4564.4607z" opacity=".88"/><path d="m37.7804 41.746c.2521 0 .4565-.2063.4565-.4607 0-.2545-.2044-.4607-.4565-.4607s-.4564.2062-.4564.4607c0 .2544.2043.4607.4564.4607z" opacity=".88"/><path d="m32.3018 45.1264c.8058 0 1.459-.6593 1.459-1.4726s-.6532-1.4726-1.459-1.4726-1.459.6593-1.459 1.4726.6532 1.4726 1.459 1.4726z" opacity=".88"/><path d="m53.9854 38.5069c.8058 0 1.459-.6593 1.459-1.4726s-.6532-1.4727-1.459-1.4727-1.459.6594-1.459 1.4727.6532 1.4726 1.459 1.4726z" opacity=".88"/><path d="m64.8474 25.2439c.4094 0 .7413-.335.7413-.7482 0-.4133-.3319-.7483-.7413-.7483s-.7413.335-.7413.7483c0 .4132.3319.7482.7413.7482z" opacity=".88"/><path d="m28.4293 20.6902c.4094 0 .7413-.335.7413-.7482 0-.4133-.3319-.7483-.7413-.7483s-.7413.335-.7413.7483c0 .4132.3319.7482.7413.7482z" opacity=".88"/><path d="m56.8633 29.9008c.3725 0 .6745-.3049.6745-.6809s-.302-.6808-.6745-.6808c-.3726 0-.6746.3048-.6746.6808s.302.6809.6746.6809z" opacity=".88"/><path d="m26.7421 42.8786c.3725 0 .6745-.3049.6745-.6809s-.302-.6809-.6745-.6809c-.3726 0-.6746.3049-.6746.6809s.302.6809.6746.6809z" opacity=".88"/><path d="m42.7124 51.6185c.3726 0 .6746-.3048.6746-.6808s-.302-.6809-.6746-.6809c-.3725 0-.6746.3049-.6746.6809s.3021.6808.6746.6808z" opacity=".88"/><path d="m54.9733 48.8497c.3725 0 .6745-.3048.6745-.6808s-.302-.6809-.6745-.6809c-.3726 0-.6746.3049-.6746.6809s.302.6808.6746.6808z" opacity=".88"/><path d="m43.8782 47.3709c.3725 0 .6745-.3049.6745-.6809s-.302-.6808-.6745-.6808c-.3726 0-.6746.3048-.6746.6808s.302.6809.6746.6809z" opacity=".88"/><path d="m53.663 9.28773c.2521 0 .4564-.20626.4564-.4607 0-.25443-.2043-.4607-.4564-.4607s-.4565.20627-.4565.4607c0 .25444.2044.4607.4565.4607z" opacity=".88"/><path d="m57.8397 11.5736c.2521 0 .4565-.2062.4565-.4607 0-.2544-.2044-.4607-.4565-.4607-.252 0-.4564.2063-.4564.4607 0 .2545.2044.4607.4564.4607z" opacity=".88"/><path d="m50.631 15.9474-13.4473 16.8313 6.1731.0442-4.7064 13.4226 13.7754-17.4539-6.2966.0231z"/><path d="m93.0839 20.776c.0959.48.1438.944.1438 1.392 0 .416-.0479.864-.1438 1.344l-6.0866-.048v16.128c0 1.344.623 2.016 1.8691 2.016h3.6424c.2236.544.3355 1.088.3355 1.632s-.032.88-.0959 1.008c-1.4697.192-2.9874.288-4.553.288-3.0992 0-4.6488-1.328-4.6488-3.984v-17.088l-3.4028.048c-.0959-.48-.1438-.928-.1438-1.344 0-.448.0479-.912.1438-1.392l3.4028.048v-5.04c0-.864.1278-1.472.3834-1.824.2556-.384.7508-.576 1.4857-.576h1.294l.2876.288v7.2z"/><path d="m116.275 21.016-6.566 22.512c-1.214 4.128-2.508 7.04-3.882 8.736s-3.435 2.544-6.1824 2.544c-1.4059 0-2.6999-.208-3.8821-.624-.0958-.896.1598-1.76.7669-2.592.9904.352 2.0448.528 3.1631.528 1.6935 0 2.9875-.576 3.8825-1.728.894-1.152 1.709-2.944 2.444-5.376l.144-.48c-.831-.064-1.47-.256-1.917-.576-.416-.32-.767-.912-1.055-1.776l-6.7096-21.12c.9905-.416 1.6934-.624 2.1088-.624.9266 0 1.5498.56 1.8688 1.68l3.787 12.048c.127.384.862 2.88 2.204 7.488.064.224.224.336.479.336l5.847-21.216c.416-.128.959-.192 1.63-.192.703 0 1.294.096 1.773.288z"/><path d="m125.484 42.76v9.504c0 .864-.128 1.472-.383 1.824-.256.384-.767.576-1.534.576h-1.294l-.288-.288v-33.456l.288-.288h1.246c.767 0 1.278.208 1.534.624.287.384.431 1.024.431 1.92v.24c1.917-2.144 4.202-3.216 6.853-3.216 2.716 0 4.761 1.104 6.135 3.312 1.374 2.176 2.061 5.2 2.061 9.072 0 1.888-.256 3.584-.767 5.088-.479 1.504-1.134 2.784-1.965 3.84-.799 1.024-1.725 1.824-2.78 2.4-1.054.544-2.14.816-3.259.816-2.204 0-4.297-.656-6.278-1.968zm0-15.6v12.336c1.949 1.44 3.786 2.16 5.512 2.16 1.725 0 3.147-.768 4.265-2.304s1.677-3.856 1.677-6.96c0-1.536-.143-2.864-.431-3.984-.256-1.152-.607-2.096-1.054-2.832-.448-.768-.975-1.328-1.582-1.68-.575-.384-1.198-.576-1.869-.576-1.278 0-2.492.336-3.642 1.008-1.151.672-2.109 1.616-2.876 2.832z"/><path d="m164.801 33.64h-14.857c.16 5.44 2.221 8.16 6.183 8.16 2.172 0 4.489-.672 6.949-2.016.703.64 1.134 1.456 1.294 2.448-2.62 1.792-5.56 2.688-8.819 2.688-1.661 0-3.083-.304-4.265-.912-1.182-.64-2.157-1.504-2.924-2.592-.734-1.12-1.278-2.432-1.629-3.936s-.527-3.152-.527-4.944c0-1.824.207-3.488.623-4.992.447-1.504 1.086-2.8 1.917-3.888s1.821-1.936 2.971-2.544c1.183-.608 2.524-.912 4.026-.912 1.47 0 2.78.272 3.93.816 1.182.512 2.157 1.232 2.924 2.16.798.896 1.405 1.984 1.821 3.264.415 1.248.623 2.592.623 4.032 0 .576-.032 1.136-.096 1.68-.032.512-.08 1.008-.144 1.488zm-14.857-2.736h11.502v-.624c0-2.208-.463-3.984-1.389-5.328-.927-1.344-2.317-2.016-4.17-2.016-1.821 0-3.243.72-4.266 2.16-.99 1.44-1.549 3.376-1.677 5.808z"/><path d="m169.734 42.664c.032-.704.224-1.472.575-2.304.384-.864.815-1.536 1.294-2.016 2.525 1.376 4.745 2.064 6.662 2.064 1.055 0 1.901-.208 2.54-.624.671-.416 1.007-.976 1.007-1.68 0-1.12-.863-2.016-2.588-2.688l-2.684-1.008c-4.026-1.472-6.039-3.824-6.039-7.056 0-1.152.208-2.176.623-3.072.447-.928 1.055-1.712 1.821-2.352.799-.672 1.742-1.184 2.828-1.536s2.3-.528 3.642-.528c.607 0 1.278.048 2.013.144.767.096 1.534.24 2.301.432.767.16 1.501.352 2.204.576s1.31.464 1.822.72c0 .8-.16 1.632-.48 2.496-.319.864-.75 1.504-1.294 1.92-2.524-1.12-4.712-1.68-6.566-1.68-.83 0-1.485.208-1.965.624-.479.384-.718.896-.718 1.536 0 .992.798 1.776 2.396 2.352l2.923 1.056c2.109.736 3.675 1.744 4.697 3.024 1.023 1.28 1.534 2.768 1.534 4.464 0 2.272-.847 4.096-2.54 5.472-1.694 1.344-4.122 2.016-7.285 2.016-3.099 0-6.007-.784-8.723-2.352z"/><path d="m211.738 34.456h-13.227c.096 1.76.495 3.152 1.198 4.176.735.992 1.997 1.488 3.786 1.488 1.853 0 3.978-.544 6.374-1.632.927.96 1.518 2.224 1.774 3.792-2.557 1.824-5.624 2.736-9.202 2.736-3.387 0-5.959-1.04-7.716-3.12-1.726-2.112-2.588-5.232-2.588-9.36 0-1.92.223-3.648.67-5.184.448-1.568 1.103-2.896 1.965-3.984.863-1.12 1.918-1.984 3.164-2.592s2.667-.912 4.265-.912c1.63 0 3.067.256 4.313.768 1.247.48 2.301 1.184 3.164 2.112.862.896 1.501 1.968 1.917 3.216.447 1.248.671 2.608.671 4.08 0 .8-.048 1.568-.144 2.304-.096.704-.224 1.408-.384 2.112zm-9.249-10.08c-2.493 0-3.835 1.888-4.026 5.664h7.956v-.576c0-1.536-.32-2.768-.959-3.696s-1.629-1.392-2.971-1.392z"/><path d="m238.004 28.312v10.464c0 2.048.336 3.568 1.007 4.56-1.023.896-2.253 1.344-3.691 1.344-1.373 0-2.316-.304-2.827-.912-.511-.64-.767-1.632-.767-2.976v-11.184c0-1.44-.176-2.448-.527-3.024-.352-.576-1.007-.864-1.965-.864-1.694 0-3.275.768-4.745 2.304v16.32c-.479.096-.99.16-1.534.192-.511.032-1.038.048-1.581.048s-1.086-.016-1.63-.048c-.511-.032-1.006-.096-1.485-.192v-23.76l.287-.336h2.397c1.789 0 2.907.96 3.354 2.88 2.333-2.016 4.649-3.024 6.95-3.024 2.3 0 3.994.752 5.08 2.256 1.118 1.472 1.677 3.456 1.677 5.952z"/><path d="m243.032 42.664c.032-.704.223-1.472.575-2.304.383-.864.815-1.536 1.294-2.016 2.524 1.376 4.745 2.064 6.662 2.064 1.054 0 1.901-.208 2.54-.624.671-.416 1.006-.976 1.006-1.68 0-1.12-.863-2.016-2.588-2.688l-2.684-1.008c-4.026-1.472-6.038-3.824-6.038-7.056 0-1.152.207-2.176.623-3.072.447-.928 1.054-1.712 1.821-2.352.799-.672 1.741-1.184 2.827-1.536 1.087-.352 2.301-.528 3.643-.528.607 0 1.278.048 2.013.144.767.096 1.533.24 2.3.432.767.16 1.502.352 2.205.576s1.31.464 1.821.72c0 .8-.16 1.632-.479 2.496-.32.864-.751 1.504-1.294 1.92-2.524-1.12-4.713-1.68-6.566-1.68-.831 0-1.486.208-1.965.624-.479.384-.719.896-.719 1.536 0 .992.799 1.776 2.396 2.352l2.924 1.056c2.109.736 3.674 1.744 4.697 3.024 1.022 1.28 1.533 2.768 1.533 4.464 0 2.272-.846 4.096-2.54 5.472-1.693 1.344-4.122 2.016-7.285 2.016-3.099 0-6.006-.784-8.722-2.352z"/><path d="m285.036 34.456h-13.228c.096 1.76.495 3.152 1.198 4.176.735.992 1.997 1.488 3.786 1.488 1.854 0 3.978-.544 6.375-1.632.926.96 1.517 2.224 1.773 3.792-2.556 1.824-5.623 2.736-9.202 2.736-3.387 0-5.959-1.04-7.716-3.12-1.725-2.112-2.588-5.232-2.588-9.36 0-1.92.224-3.648.671-5.184.447-1.568 1.102-2.896 1.965-3.984.863-1.12 1.917-1.984 3.163-2.592s2.668-.912 4.265-.912c1.63 0 3.068.256 4.314.768 1.246.48 2.3 1.184 3.163 2.112.863.896 1.502 1.968 1.917 3.216.447 1.248.671 2.608.671 4.08 0 .8-.048 1.568-.144 2.304-.096.704-.223 1.408-.383 2.112zm-9.25-10.08c-2.492 0-3.834 1.888-4.026 5.664h7.956v-.576c0-1.536-.32-2.768-.959-3.696s-1.629-1.392-2.971-1.392z"/><path d="m292.467 51.064v-43.92c.479-.096 1.022-.144 1.629-.144.639 0 1.23.048 1.773.144v43.92c-.543.096-1.134.144-1.773.144-.607 0-1.15-.048-1.629-.144z"/></g></svg>